<svg width="38" height="38" viewBox="0 0 38 38" fill="none" xmlns="http://www.w3.org/2000/svg">
<path d="M17.961 3.83708C14.5024 4.16365 11.6895 5.30662 9.23284 7.3699C7.65198 8.69841 6.03401 10.7765 5.30667 12.4242L5.12854 12.8324L5.70002 12.5726C8.14182 11.4371 10.5539 10.7246 13.1739 10.3461C13.8789 10.2496 14.8883 10.2125 18.0352 10.1679C20.6403 10.1383 22.0875 10.0863 22.2508 10.0344C22.9262 9.81169 23.5571 9.24763 23.8539 8.61677C23.9949 8.30505 24.0098 8.12693 24.0321 6.48669L24.0543 4.69802L23.8465 4.61638C22.3696 4.0449 19.616 3.6738 17.961 3.83708Z" fill="white"/>
<path d="M26.5703 7.07299C26.5703 8.03783 26.5406 8.40893 26.4219 8.86166C26.0656 10.257 25.1379 11.4074 23.8316 12.0902C22.7703 12.6394 22.852 12.632 18.2578 12.6913C13.7973 12.7507 13.5227 12.773 11.3629 13.2554C9.11407 13.7601 6.34571 14.9031 4.42345 16.1351L4.03009 16.3874L3.94845 17.0035C3.81485 17.9312 3.75548 19.3265 3.8297 19.4675C3.89649 19.5788 3.95587 19.5566 4.3047 19.282C6.9543 17.2781 10.1902 15.9347 13.6711 15.3929C14.2649 15.2964 15.3633 15.2593 18.5176 15.2148C22.9856 15.1554 22.9781 15.1554 24.2473 14.6804C26.0285 14.0124 27.4535 12.6988 28.3219 10.9472C28.782 10.0046 29.0121 9.21049 29.0715 8.30502L29.116 7.66674L28.6039 7.24369C28.1215 6.84291 26.7039 5.86322 26.6149 5.86322C26.5926 5.86322 26.5703 6.41244 26.5703 7.07299Z" fill="white"/>
<path d="M31.1348 10.7766C30.1699 13.7008 27.8098 16.1129 24.9004 17.1445C23.416 17.6715 23.3269 17.6789 18.7773 17.7383C15.4746 17.7828 14.5023 17.8199 13.8789 17.9164C10.4723 18.4656 7.36991 19.9055 4.80936 22.1395L4.2453 22.6367L4.45311 23.3195C4.69061 24.1211 5.11366 25.2344 5.17303 25.2344C5.1953 25.2344 5.50702 24.9598 5.85585 24.6184C8.25311 22.3102 10.9769 20.9668 14.3762 20.4027C14.673 20.3508 16.5582 20.2988 18.9629 20.2617C23.3789 20.2023 23.5496 20.1875 25.0637 19.7496C28.166 18.8441 30.823 16.7734 32.4484 13.9828C33.0199 13.018 33.0051 13.0699 32.7453 12.5059C32.4855 11.9566 31.7953 10.7766 31.5207 10.4055L31.3351 10.1605L31.1348 10.7766Z" fill="white"/>
<path d="M33.4281 17.0406C31.3426 19.6383 28.4406 21.5234 25.2418 22.3398C23.7945 22.7035 23.4754 22.7332 19.1856 22.7852C14.8215 22.8371 14.6508 22.852 13.0774 23.2676C11.7117 23.6312 10.1457 24.4031 8.90627 25.316C8.26799 25.791 6.88752 27.1121 6.65002 27.4758C6.51642 27.6762 6.51642 27.6762 6.87267 28.1438C7.31799 28.7375 8.08986 29.6133 8.15666 29.6133C8.18634 29.6133 8.3422 29.4426 8.49806 29.2273C9.58908 27.8098 11.4074 26.5109 13.211 25.8875C14.6137 25.3977 14.8363 25.3754 19.4453 25.3086C23.2379 25.2566 23.7203 25.2344 24.4922 25.0934C27.9953 24.4477 31.0235 22.941 33.6063 20.5512L34.1778 20.0316L34.1629 18.7922C34.1555 18.1094 34.1035 17.2855 34.0516 16.9664L33.9551 16.3801L33.4281 17.0406Z" fill="white"/>
<path d="M33.0125 24.2621C32.5969 24.5961 31.0161 25.509 30.17 25.9097C28.4778 26.7113 26.6446 27.2828 24.7149 27.6168C23.8762 27.7652 23.4086 27.7801 19.668 27.832C16.2911 27.8765 15.4524 27.9062 15.0145 28.0027C13.8715 28.2625 13.0477 28.6187 12.1125 29.2644C11.5633 29.6429 10.4352 30.7636 10.2496 31.1199C10.1161 31.3648 10.1086 31.3574 11.17 31.9957C13.6489 33.4875 16.1055 34.1703 19 34.1703C21.4864 34.1703 23.4383 33.725 25.6575 32.6488C28.9602 31.0605 31.5727 28.2551 33.0571 24.7297C33.2946 24.173 33.2797 24.0543 33.0125 24.2621Z" fill="white"/>
</svg>
